<?xml version="1.0" standalone="no"?>
<!DOCTYPE svg PUBLIC "-//W3C//DTD SVG 20010904//EN"
 "http://www.w3.org/TR/2001/REC-SVG-20010904/DTD/svg10.dtd">
<svg version="1.0" xmlns="http://www.w3.org/2000/svg"
 width="640.000000pt" height="640.000000pt" viewBox="0 0 640.000000 640.000000"
 preserveAspectRatio="xMidYMid meet">
<metadata>
Created by potrace 1.11, written by Peter Selinger 2001-2013
</metadata>
<g transform="translate(0.000000,640.000000) scale(0.100000,-0.100000)"
fill="#000000" stroke="none">
<path d="M4363 5610 c-36 -22 -39 -30 -21 -60 9 -15 10 -27 2 -48 -16 -41 12
-89 43 -77 7 2 12 1 10 -4 -1 -4 12 -20 29 -34 25 -21 43 -27 78 -27 26 0 46
-5 46 -11 0 -5 4 -8 9 -5 5 4 7 -3 4 -14 -4 -13 1 -27 13 -36 11 -9 14 -13 7
-10 -13 7 -89 -20 -113 -39 -8 -7 -20 -10 -27 -8 -6 2 -14 -1 -18 -6 -3 -6 -1
-11 6 -11 19 0 83 24 90 34 4 5 12 5 18 1 9 -5 7 -11 -6 -21 -28 -21 -10 -17
45 11 28 14 56 25 63 25 8 0 5 6 -7 15 -18 14 -18 14 8 15 15 0 34 -7 43 -16
8 -9 32 -17 53 -19 26 -2 28 -1 7 2 -26 5 -28 6 -10 13 18 7 16 9 -12 15 -18
4 -33 12 -33 17 0 5 5 6 10 3 6 -3 10 -2 10 4 0 6 -17 13 -37 17 -21 4 -51 13
-68 20 -16 7 -34 13 -40 13 -12 1 -12 6 -1 43 8 27 30 43 47 32 13 -7 10 26
-4 58 -15 33 -112 103 -164 117 -48 14 -42 14 -80 -9z"/>
<path d="M4667 5373 c4 -10 11 -21 17 -25 16 -11 66 -10 66 1 0 5 -10 7 -22 4
-13 -3 -20 -2 -16 2 4 4 -4 14 -18 22 -33 17 -35 17 -27 -4z"/>
<path d="M4880 5269 c0 -5 -11 -7 -25 -3 -15 4 -25 2 -25 -5 0 -6 15 -11 34
-11 18 0 49 -3 67 -6 25 -5 31 -4 23 5 -15 16 -74 32 -74 20z"/>
<path d="M4397 5133 c-4 -3 -7 -11 -7 -17 0 -6 5 -5 12 2 6 6 9 14 7 17 -3 3
-9 2 -12 -2z"/>
<path d="M4450 4469 c0 -15 -40 -59 -54 -59 -4 0 -18 -12 -32 -27 -18 -20 -23
-34 -19 -51 3 -13 1 -30 -6 -38 -13 -16 -33 -19 -24 -4 3 6 1 10 -4 10 -6 0
-11 -9 -11 -21 0 -12 -8 -23 -20 -26 -11 -3 -20 -9 -20 -14 0 -5 -13 -15 -30
-24 -16 -9 -30 -23 -30 -32 0 -15 -2 -14 -15 4 -13 18 -19 20 -62 12 -26 -5
-73 -16 -103 -25 -70 -21 -137 -37 -280 -69 -254 -56 -299 -67 -390 -95 -52
-16 -130 -39 -172 -51 -43 -13 -78 -26 -78 -31 0 -4 -9 -8 -20 -8 -11 0 -28
-4 -38 -9 -9 -6 -33 -12 -53 -16 -19 -3 -44 -12 -55 -20 -18 -14 -17 -14 14
-9 17 4 32 4 32 1 0 -14 -46 -29 -102 -33 -43 -3 -87 -17 -152 -47 -141 -65
-166 -81 -282 -181 -122 -105 -174 -158 -198 -204 -10 -19 -24 -32 -36 -32
-10 0 -22 -5 -25 -11 -4 -6 -14 -8 -24 -4 -13 5 -14 4 -3 -6 23 -24 14 -47
-24 -59 -19 -7 -45 -9 -57 -6 -19 4 -27 -2 -46 -42 -13 -26 -30 -59 -38 -74
-8 -15 -13 -33 -12 -40 5 -39 -1 -45 -38 -43 -21 2 -46 6 -55 10 -31 12 -20
-14 19 -50 36 -33 38 -38 37 -93 -1 -34 -8 -68 -17 -83 -30 -47 -122 -352
-143 -474 -5 -29 -4 -29 10 -11 9 11 16 28 16 39 0 10 5 28 12 40 7 12 11 33
9 46 -2 15 1 21 8 17 15 -10 14 -39 -1 -55 -10 -11 -10 -14 0 -18 9 -3 12 -46
12 -166 1 -213 14 -345 44 -437 29 -91 33 -73 6 30 -20 78 -28 198 -10 170 19
-30 21 1 6 75 -18 85 -21 195 -6 195 5 0 21 -5 35 -12 25 -11 25 -13 25 -119
0 -108 9 -138 30 -99 10 18 14 19 27 8 13 -10 15 -34 11 -151 -3 -109 -2 -140
9 -149 23 -19 60 29 92 117 47 134 183 386 264 488 23 30 35 37 56 35 22 -3
26 -8 29 -40 2 -20 -2 -54 -7 -76 -12 -44 -88 -150 -166 -232 -67 -70 -71 -79
-80 -170 -4 -41 -20 -128 -36 -192 -34 -139 -36 -160 -11 -156 14 3 16 -3 14
-37 -5 -56 3 -43 42 73 30 90 63 156 126 257 16 25 17 40 11 94 -7 62 -7 65
28 116 102 149 116 164 156 180 53 20 60 19 96 -7 36 -27 59 -17 71 28 4 16
18 34 30 40 13 5 41 20 63 32 22 11 48 23 57 26 10 3 20 20 24 41 6 32 9 36
28 29 11 -4 38 -6 59 -6 20 1 37 -3 37 -8 0 -5 14 -4 33 1 177 55 214 59 209
24 -2 -11 -5 -90 -6 -175 -2 -152 -7 -182 -47 -302 -23 -70 -24 -89 -4 -82 19
8 20 -10 1 -25 -11 -9 -15 -9 -19 1 -2 7 -8 0 -12 -16 -5 -18 -3 -36 4 -47 6
-10 11 -25 11 -33 0 -8 5 -16 12 -18 7 -3 8 -9 3 -18 -4 -7 -9 -35 -10 -62 -2
-26 -8 -54 -14 -62 -19 -22 -3 -47 26 -40 22 6 24 4 19 -15 -3 -11 -8 -30 -11
-40 -3 -11 -2 -22 4 -25 5 -3 17 18 27 46 14 39 18 87 19 183 1 115 6 147 39
280 44 171 51 187 101 235 44 42 102 125 139 200 15 30 54 91 87 135 33 44
106 143 162 220 199 273 211 293 261 433 15 42 51 109 84 155 195 279 358 572
402 722 27 90 36 232 21 308 -13 59 -31 69 -31 16 0 -18 -4 -28 -10 -24 -5 3
-10 15 -10 26 0 11 -8 23 -17 26 -10 4 -21 11 -25 17 -5 7 -8 5 -8 -5z m-1444
-656 c-19 -21 -39 -34 -43 -29 -8 7 54 65 70 66 5 0 -8 -17 -27 -37z m1034
-109 c0 -8 -4 -12 -10 -9 -5 3 -10 10 -10 16 0 5 5 9 10 9 6 0 10 -7 10 -16z
m-204 -102 c29 -19 46 -94 24 -107 -6 -3 -13 2 -17 11 -6 17 -7 17 -13 0 -5
-14 -9 -12 -28 14 -21 28 -22 32 -7 60 16 31 23 35 41 22z m224 -108 c0 -21
-4 -33 -10 -29 -5 3 -10 22 -10 41 0 21 4 33 10 29 6 -3 10 -22 10 -41z m-310
7 c0 -11 -26 -22 -34 -14 -12 12 -5 23 14 23 11 0 20 -4 20 -9z m153 -35 c3
-8 3 -17 0 -20 -9 -9 -34 15 -27 25 8 13 21 11 27 -5z m-1693 -116 c0 -5 -4
-10 -10 -10 -5 0 -10 5 -10 10 0 6 5 10 10 10 6 0 10 -4 10 -10z m980 -1504
c0 -3 -4 -8 -10 -11 -5 -3 -10 -1 -10 4 0 6 5 11 10 11 6 0 10 -2 10 -4z"/>
<path d="M1786 1478 c5 -7 2 -9 -7 -6 -8 3 -26 -1 -40 -9 -17 -10 -18 -13 -4
-8 16 5 18 4 8 -6 -15 -15 -17 -49 -3 -49 6 0 10 -15 10 -33 0 -26 6 -36 25
-45 14 -6 25 -19 25 -28 0 -14 7 -16 40 -11 24 3 38 1 34 -4 -4 -6 15 -7 48
-3 29 4 76 8 104 8 54 1 67 18 28 39 -20 11 -85 52 -195 124 -69 44 -85 52
-73 31z m274 -168 c8 -5 11 -10 5 -10 -5 0 -17 5 -25 10 -8 5 -10 10 -5 10 6
0 17 -5 25 -10z"/>
</g>
</svg>
