<svg class="icon" viewBox="0 0 1024 1024" xmlns="http://www.w3.org/2000/svg" width="200" height="200"><defs><style/></defs><path d="M43.327 509.391v11.05-23.481 12.431zM521.26 32.84c-33.151 0-66.303 4.143-98.073 9.669h197.527c-33.151-6.907-66.303-9.67-99.454-9.67z" fill="#33A3F4"/><path d="M521.26 987.324h446.163c13.813 0 24.864-8.287 30.389-20.72 4.144-12.431 1.381-26.244-9.67-35.913l-117.41-98.073c81.497-87.023 127.08-203.053 127.08-323.227 0-229.297-162.995-421.3-378.479-466.882H423.187C210.465 86.71 50.233 273.187 44.708 498.34v23.482c5.525 258.305 216.866 465.501 476.552 465.501zM508.828 201.36c17.957-26.245 46.965-41.439 78.735-40.058 31.77 1.382 59.396 20.72 74.59 48.346 13.814 29.008 12.432 62.16-5.525 88.404-17.957 26.245-46.964 41.44-78.734 40.058-31.77-1.381-59.397-20.72-74.591-48.346-13.813-29.007-11.05-62.159 5.525-88.404zM367.935 516.298s172.663-127.08 227.916-100.836c56.633 26.245-20.72 178.19-26.245 203.053-5.525 24.863-41.44 203.052 75.972 100.835 0 0 58.015-38.676-26.245 51.109-82.879 89.785-190.62 118.792-203.052 51.108 8.287-102.217 26.244-204.434 51.108-305.27 2.763-23.481-26.245 0-26.245 0s-82.878 58.016-100.836 26.246c-1.38-5.525 27.627-26.245 27.627-26.245z" fill="#33A3F4"/></svg>