<svg class="icon" viewBox="0 0 1024 1024" xmlns="http://www.w3.org/2000/svg" width="200" height="200"><defs><style/></defs><path d="M849.773 26.383H174.227A147.843 147.843 0 0026.383 174.227v675.546a147.843 147.843 0 00147.844 147.844h675.546a147.843 147.843 0 00147.844-147.844V174.227A147.843 147.843 0 00849.773 26.383zm-607.56 431.66H134.298V350.128h107.915zM134.298 565.957h107.915v107.915H134.298zm755.404-107.914H781.787V350.128h107.915zM781.787 565.957h107.915v107.915H781.787zm107.915-391.73v67.986H781.787V134.298h67.986a39.928 39.928 0 0139.929 39.929zm-715.475-39.929h67.986v107.915H134.298v-67.986a39.928 39.928 0 0139.929-39.929zm-39.929 715.475v-67.986h107.915v107.915h-67.986a39.928 39.928 0 01-39.929-39.929zm755.404 0a39.928 39.928 0 01-39.929 39.929h-67.986V781.787h107.915z" fill="#33A3F4"/></svg>